<svg width="195" height="54" fill="none" xmlns="http://www.w3.org/2000/svg"><path d="M172.09 54l.001-.006a43085.17 43085.17 0 0010.664-44.06h-1.385c-58.723 0-117.512 0-176.235.069C1.645 10.002 0 7.502 0 4.73.066 2.568 1.317.608 3.292.135 3.687.068 4.082 0 4.41 0H195c-.264 1.16-.549 2.32-.831 3.468-.211.858-.42 1.709-.617 2.547a59.3 59.3 0 00-.263 1.307c-.156.807-.314 1.623-.527 2.41-.395 1.667-.849 3.334-1.302 5.001-.227.834-.454 1.668-.673 2.501-1.515 6.083-3.029 12.165-4.477 18.248-.724 2.974-1.432 5.964-2.14 8.955a1380.92 1380.92 0 01-2.139 8.955c-.066.202-.329.54-.527.54-3.094.068-6.254.068-9.414.068z" fill="#9F0023"/><path d="M172.09 54l.001-.006a43085.17 43085.17 0 0010.664-44.06h-1.385c-58.723 0-117.512 0-176.235.069C1.645 10.002 0 7.502 0 4.73.066 2.568 1.317.608 3.292.135h0C3.687.068 4.082 0 4.41 0H195c-.264 1.16-.549 2.32-.831 3.468-.211.858-.42 1.709-.617 2.547a59.3 59.3 0 00-.263 1.307c-.156.807-.314 1.623-.527 2.41-.395 1.667-.849 3.334-1.302 5.001-.227.834-.454 1.668-.673 2.501-1.515 6.083-3.029 12.165-4.477 18.248-.724 2.974-1.432 5.964-2.14 8.955a1380.92 1380.92 0 01-2.139 8.955c-.066.202-.329.54-.527.54-3.094.068-6.254.068-9.414.068h0z" stroke="#F2F2F2"/></svg>