<svg width="40" height="41" fill="none" xmlns="http://www.w3.org/2000/svg"><g clip-path="url(#clip0)" fill="#373334"><path d="M28.158 10.542h7.389L26.19 1.186v7.39a1.97 1.97 0 001.967 1.966z"/><path d="M28.159 12.885a4.315 4.315 0 01-4.31-4.31V.5H8.076a4.315 4.315 0 00-4.31 4.31v31.38a4.315 4.315 0 004.31 4.31h23.848a4.315 4.315 0 004.31-4.31V12.885H28.16zm-9.414 10.209h2.51a3.687 3.687 0 013.683 3.682 3.686 3.686 0 01-3.682 3.682h-.084v1.339a1.172 1.172 0 01-2.344 0v-1.339h-2.594a1.172 1.172 0 010-2.343h5.021c.738 0 1.339-.6 1.339-1.339 0-.738-.6-1.339-1.339-1.339h-2.51a3.687 3.687 0 01-3.683-3.682 3.686 3.686 0 013.683-3.682h.083v-1.339a1.172 1.172 0 112.344 0v1.34l2.594-.001a1.172 1.172 0 110 2.344h-5.021c-.738 0-1.339.6-1.339 1.338 0 .738.6 1.339 1.339 1.339z"/></g><defs><clipPath id="clip0"><path fill="#fff" transform="translate(0 .5)" d="M0 0h40v40H0z"/></clipPath></defs></svg>