<svg width="16" height="17" fill="none" xmlns="http://www.w3.org/2000/svg"><path d="M14.41 13.147h0c.708 1.024.38 2.253-.746 2.785l.746-2.785zm0 0L7.401 3.018h0m7.01 10.13L7.4 3.017m0 0a3.535 3.535 0 00-.642-.7c.192.173.364.368.512.581h0m.13.119L7.27 2.9m0 0l7.009 10.129h0M7.271 2.899l7.01 10.13m0 0c.727 1.053.369 2.393-.789 2.94v.001m.788-2.941l-.788 2.941m0 0a2.296 2.296 0 01-.612.188m.612-.188l-.612.188m0 0c.277-.035.541-.111.784-.226l-.784.226zM2.55 1.718h0c-.779.369-1.294.975-1.488 1.697-.193.722-.05 1.505.44 2.213h0L7.02 13.6c.007.01.03.031.07.042l.008.002-5.466-7.899s0 0 0 0c-.48-.693-.648-1.511-.438-2.296.21-.784.766-1.409 1.528-1.77h0a3.4 3.4 0 01.735-.247 3.535 3.535 0 00-.907.285zm7.72 13.389h-.001L5.562 8.303a1.231 1.231 0 01-.189-1.017c.096-.357.348-.632.673-.786.084-.04.171-.07.26-.093-.15.023-.295.066-.432.131-.342.162-.554.42-.632.713-.078.288-.02.629.19.934h0l4.707 6.802a2.6 2.6 0 00.566.587 2.298 2.298 0 01-.436-.468zM8.057 7.124a1.567 1.567 0 00-.309-.33 1.405 1.405 0 01.18.212l3.213 4.645h0a.125.125 0 00.079.044L8.058 7.124z" fill="#fff" stroke="#fff"/></svg>