<svg width="214" height="48" fill="none" xmlns="http://www.w3.org/2000/svg"><path d="M213.604 9.489c-.073.073-.183.184-.183.257-.182 2.317-1.203 4.156-2.844 5.738-.656.625-.693.625-.255 1.435a8.421 8.421 0 01.984 4.965c-.291 2.464-1.458 4.487-3.463 5.995-1.35.993-2.845 1.656-4.485 1.656-15.314 0-30.629-.037-45.943-.074h-17.392c.182-.736.328-1.434.51-2.096 1.203-4.892 2.443-9.784 3.646-14.713.073-.331.219-.441.511-.405h4.375c.328 0 .438.037.328.442-.729 2.905-1.458 5.774-2.151 8.68-.219.846-.401 1.692-.62 2.538-.073.331 0 .441.329.405h.474c18.522 0 37.045 0 55.605.036.802 0 1.494-.11 2.114-.662.584-.515.985-1.14 1.131-1.95.364-2.132-.839-3.971-3.027-4.303-1.422-.22-2.807-.147-4.193-.147-13.6-.036-27.201 0-40.801 0h-.656c.182-.662.328-1.25.474-1.839.255-.956.474-1.912.729-2.869.073-.33.219-.441.547-.441.656.073 1.349.073 2.005.11l16.044.11c3.463.037 6.891.074 10.355.074 2.99.037 5.98.074 8.97.074 2.771.037 5.542.073 8.313.073.912 0 1.75-.294 2.443-.956.839-.81 1.13-1.802 1.057-2.98-.073-1.323-1.13-2.721-2.443-3.015-.364-.074-.765-.147-1.166-.147h-17.028a9766.941 9766.941 0 00-32.926-.074c-10.72-.037-21.44-.074-32.123-.074-.656 0-.656 0-.802.626-1.094 4.45-2.188 8.864-3.282 13.315l-2.406 9.71c-.037.147-.219.33-.365.33-1.568.038-3.136 0-4.74 0-.037 0-.109-.036-.219-.036.292-1.14.547-2.244.839-3.347 1.568-6.29 3.099-12.543 4.667-18.832.547-2.207 1.094-4.414 1.604-6.62.073-.369.256-.442.62-.442h87.4c1.021 0 1.933.404 2.771.846 1.495.809 2.589 1.986 3.391 3.457.657 1.25 1.204 2.501 1.24 3.936 0 .073.073.147.11.22-.073.368-.073.663-.073.994zM164.6 48c.219-1.103.474-2.207.693-3.347.036-.258.182-.368.437-.331.365.073.547-.11.693-.441 1.057-2.023 1.604-4.157 2.042-6.364.036-.257.109-.404.401-.404h5.287c.073 0 .109.037.219.037-.183.846-.365 1.728-.547 2.574-.292 1.435-.62 2.832-.912 4.267-.036.257 0 .368.292.368s.328.11.255.367c-.219.92-.401 1.84-.583 2.76-.037.183 0 .33 0 .514h-1.24c.146-.81.328-1.618.474-2.464h-5.87c-.146.846-.256 1.655-.401 2.464h-1.24zm8.022-9.71c-.839 0-1.641.037-2.407 0-.365 0-.474.147-.583.478-.474 1.582-1.021 3.126-1.532 4.671-.109.294-.219.589-.328.92h3.573c.438-2.023.839-4.01 1.277-6.07z" fill="#373334"/><path d="M97.726 29.388c1.969-7.981 3.938-15.963 5.907-23.981h-.766c-32.524 0-65.085 0-97.61.037-1.932 0-2.844-1.361-2.844-2.87.037-1.176.73-2.243 1.823-2.5.22-.037.438-.074.62-.074h105.559c-.256 1.103-.547 2.207-.803 3.274-.145.662-.255 1.36-.437 2.023-.328 1.36-.729 2.721-1.094 4.082-.839 3.31-1.677 6.62-2.479 9.931-.803 3.237-1.568 6.51-2.37 9.747-.037.11-.183.295-.292.295-1.714.036-3.464.036-5.214.036z" fill="#9F0023"/><path d="M36.106 29.572H5.222c-1.24 0-2.224-.699-2.589-1.876-.328-.993.11-2.096 1.094-2.795.51-.368 1.094-.442 1.678-.442H66.77c1.458 0 2.844-1.324 3.062-2.758.183-1.324-.109-2.428-1.093-3.347-.584-.515-1.24-.846-2.042-.846H33.663c-1.094 0-1.896-.442-2.37-1.471-.51-1.067-.292-2.06.474-2.87.474-.514 1.057-.809 1.823-.809h32.67c4.193 0 7.73 2.98 8.496 7.062.51 2.685-.219 5.076-1.97 7.136-1.421 1.692-3.244 2.611-5.396 2.98-.182.036-.364 0-.51 0-10.282.036-20.528.036-30.774.036zm115.075 15.926h-2.006c-.291 0-.401-.073-.328-.404l1.641-7.724c.037-.11.255-.295.365-.295 1.276 0 2.589 0 3.865.074.911.037 1.531.625 1.75 1.508.182.736-.182 1.618-.875 1.986-.11.074-.255.11-.401.22-.219.148-.255.258 0 .442.328.258.656.515.838.846.438.736.11 1.435-.291 2.097-.438.735-1.204 1.03-2.006 1.14-.875.11-1.75.11-2.589.147.037 0 .037 0 .037-.037zm.911-1.177h1.094c.657-.036 1.167-.257 1.459-.882.292-.7 0-1.435-.766-1.545-.875-.11-1.787-.074-2.698-.074-.073 0-.182.147-.182.22-.146.626-.292 1.288-.438 1.914-.036.22.037.367.292.367h1.239zm-.765-3.641a57.615 57.615 0 002.771-.147c.62-.074.984-.699.911-1.398-.072-.551-.437-.846-1.13-.846h-1.385c-.657 0-.693 0-.803.662-.145.515-.218 1.067-.364 1.729zm-76.791 4.819h-2.042c-.292 0-.365-.11-.292-.368l1.641-7.724c.036-.147.255-.294.365-.294 1.276 0 2.588 0 3.865.073.984.074 1.64.736 1.786 1.656.11.588-.291 1.618-1.13 1.949-.146.037-.219.184-.328.294.11.11.182.22.291.294.912.589 1.094 1.398.693 2.391-.437 1.03-1.276 1.508-2.297 1.619-.838.11-1.714.11-2.552.147v-.037zm-.62-1.177c1.02 0 1.932.037 2.808 0 .583 0 1.057-.331 1.276-.883.291-.699 0-1.434-.73-1.545-.656-.11-1.312-.073-2.005-.073-.839 0-.875 0-1.057.846-.073.515-.183 1.066-.292 1.655zm2.552-6.032c-.328 0-.656-.037-.948 0-.146.037-.328.184-.364.294a20.84 20.84 0 00-.365 1.618c-.073.258 0 .405.328.405.584 0 1.203.037 1.787 0 .328-.037.656-.11.948-.257.437-.221.656-.846.547-1.361-.11-.442-.474-.7-1.021-.7h-.912zm118.176-1.177c-.365 1.765-.73 3.494-1.094 5.223.036.037.073.073.146.073.218-.184.437-.33.619-.551.948-1.14 1.896-2.28 2.881-3.384.219-.258.401-.478.62-.736.291-.404.62-.699 1.167-.588.218.036.474 0 .765 0-.146.698-.291 1.324-.401 1.986-.437 2.06-.875 4.082-1.312 6.142-.037.11-.219.294-.329.294-1.385 0-1.203.221-.911-1.066.255-1.288.547-2.575.838-3.862.037-.11-.036-.258-.072-.368-.11.074-.219.074-.292.184-1.276 1.508-2.553 3.053-3.829 4.56-.437.516-1.13.773-1.713.59-.073-.038-.183-.221-.146-.332.255-1.25.547-2.5.802-3.751.292-1.325.547-2.612.839-3.936.072-.294.182-.405.474-.368.218-.11.546-.11.948-.11zm-34.021 0c-.365 1.765-.73 3.494-1.094 5.186.036.037.073.073.146.073.218-.184.437-.33.62-.551.948-1.14 1.896-2.28 2.88-3.384.219-.258.438-.515.62-.773.292-.367.62-.662 1.13-.588.256.037.474 0 .802 0-.182.846-.328 1.655-.51 2.427-.401 1.876-.802 3.789-1.203 5.665-.037.257-.146.294-.365.294-1.313-.037-1.167.184-.875-1.104a144 144 0 01.839-3.861c.036-.11-.037-.258-.037-.368-.109.036-.219.073-.292.184-1.276 1.508-2.588 3.052-3.828 4.56-.438.515-1.094.773-1.714.589-.073-.037-.182-.22-.146-.331.401-1.913.803-3.825 1.24-5.738.146-.625.292-1.287.401-1.913.037-.294.182-.404.474-.404.182.037.511.037.912.037zm-55.715 3.42c-.073 1.987-1.203 4.157-3.209 4.892-1.64.589-3.39.221-4.338-1.287-.511-.846-.657-1.802-.438-2.795.219-.993.51-1.913 1.13-2.722.62-.81 1.422-1.324 2.407-1.582.948-.257 1.896-.184 2.807.331 1.058.626 1.678 1.913 1.641 3.163zm-6.563 1.619c0 .883.255 1.655 1.094 2.06.875.404 1.714.294 2.443-.295.802-.588 1.167-1.47 1.385-2.427.183-.736.183-1.508-.146-2.244-.583-1.324-2.588-1.434-3.61-.33-.801.919-1.166 2.022-1.166 3.236zM39.24 40.606c-.183 1.84-.839 3.495-2.553 4.524-1.713.994-3.901.81-4.995-.956-.547-.883-.656-1.876-.437-2.869.218-.956.51-1.876 1.13-2.685a4.18 4.18 0 012.406-1.545c.948-.257 1.896-.184 2.772.331 1.203.663 1.604 1.803 1.677 3.2zm-1.532-.036v-.184c0-.993-.437-1.729-1.166-2.023a2.496 2.496 0 00-2.699.588c-.838.92-1.203 2.06-1.203 3.347.037.81.255 1.508 1.021 1.876.802.405 1.568.368 2.297-.11 1.276-.846 1.641-2.097 1.75-3.494zm33.619.036c-.183 1.84-.839 3.495-2.553 4.524-1.713.994-3.901.81-4.995-.956-.547-.883-.656-1.876-.438-2.869.22-.956.511-1.876 1.13-2.685a4.18 4.18 0 012.407-1.545c.948-.257 1.896-.184 2.772.331 1.203.663 1.64 1.803 1.677 3.2zm-6.564 1.508c0 .92.256 1.545.766 1.913.912.625 2.115.552 2.917-.22.985-.957 1.386-2.134 1.35-3.458 0-.956-.475-1.692-1.204-1.95a2.404 2.404 0 00-2.662.589c-.802.846-1.167 1.95-1.167 3.127zM7.265 44.432c1.057-.074 1.24-.22 1.458-1.25.401-1.876.803-3.789 1.24-5.665.037-.147.219-.405.328-.405 1.75-.036 3.537 0 5.36 0-.182.846-.328 1.619-.51 2.428-.401 1.876-.802 3.789-1.204 5.664-.072.258-.145.331-.4.331h-.84c-.29 0-.327-.11-.29-.367l1.312-6.18c.146-.588.073-.662-.51-.662h-1.496c-.328 0-.474.074-.547.442a124.004 124.004 0 01-1.203 5.296c-.328 1.177-1.057 1.692-2.115 1.655a1.69 1.69 0 01-.62-.11.509.509 0 01-.182-.294c.073-.331.182-.589.219-.883zm133.159-7.319c-.219.993-.401 1.95-.583 2.906-.365 1.728-.766 3.457-1.13 5.186-.037.257-.146.294-.365.294h-.839c-.291 0-.364-.11-.291-.368l1.312-6.18c.146-.624.11-.661-.547-.661h-1.495c-.328 0-.437.11-.51.441-.401 1.802-.729 3.605-1.24 5.334-.364 1.397-1.313 1.839-2.735 1.544a1.683 1.683 0 00-.255-.11c.073-.331.183-.699.255-1.03 1.094-.11 1.313-.294 1.532-1.471.401-1.84.766-3.715 1.167-5.554.036-.147.218-.331.364-.331h5.36zm45.65-.001a105.27 105.27 0 01-.693 3.31c.146.037.292.037.401.037h2.771c.292 0 .438-.11.475-.368.182-.882.364-1.728.546-2.611.037-.258.146-.405.438-.368h1.167c-.183.846-.328 1.618-.511 2.428-.401 1.876-.802 3.788-1.203 5.664-.036.257-.146.331-.401.331h-.839c-.291 0-.364-.11-.291-.368.218-.993.437-1.95.619-2.942.11-.479.037-.552-.401-.552h-2.588c-.329 0-.474.073-.547.404-.219 1.067-.474 2.097-.657 3.164-.036.257-.146.33-.364.294h-.401c-1.021 0-.839 0-.657-.81.474-2.39 1.021-4.78 1.532-7.172.073-.33.182-.441.51-.441h1.094zm-9.555 7.246h4.813a6.59 6.59 0 01-.255.994c-.037.11-.219.184-.328.184h-5.579c-.292 0-.365-.11-.292-.405.547-2.575 1.094-5.113 1.641-7.687.036-.148.255-.332.365-.332 1.75-.036 3.536 0 5.287 0 .255 0 .328.037.255.332-.255 1.03-.109.845-1.021.845h-3.136c-.328 0-.474.11-.51.442-.073.588-.219 1.177-.365 1.802.219 0 .401.037.584.037h3.245c.547 0 .547 0 .401.552v.036c-.037.479-.292.626-.802.626-1.094-.037-2.188 0-3.282 0-.292 0-.438.073-.51.404a23.73 23.73 0 00-.511 2.17zm-49.585-3.825c.256 0 .402.037.584.037h3.354c.292 0 .401.037.292.368-.255.883-.036.81-1.021.81-1.021 0-2.005.036-3.026 0-.401 0-.547.146-.62.477-.11.7-.255 1.361-.401 2.097.255 0 .401.037.583.037h3.719c.365 0 .511.036.365.478-.255.772-.036.735-.912.735h-5.104c-.328 0-.438-.073-.365-.44.547-2.539 1.094-5.077 1.641-7.651.036-.11.219-.295.328-.295h5.469c.037 0 .073.037.183.074-.073.294-.11.625-.219.92-.037.11-.292.183-.438.183-1.166 0-2.297.037-3.464 0-.401 0-.583.074-.656.552 0 .441-.146.993-.292 1.618zm-13.529-3.347c-.073.331-.109.662-.255.92-.037.11-.292.183-.438.183-1.166 0-2.297.037-3.464 0-.401 0-.583.074-.619.515a5.775 5.775 0 01-.292 1.325c-.11.367.036.44.364.44h3.902a6.587 6.587 0 01-.255.994c-.037.11-.292.184-.438.184h-3.464c-.328 0-.51.074-.583.441-.11.589-.255 1.177-.365 1.803-.073.33.11.404.401.404h4.339a6.59 6.59 0 01-.255.993c-.036.11-.219.184-.328.184h-5.652c-.291 0-.328-.147-.255-.404.438-2.06.912-4.157 1.349-6.216.11-.479.182-.994.292-1.435.036-.147.219-.331.364-.331 1.787-.037 3.574 0 5.36 0 .11-.074.183-.037.292 0zm29.17 7.136h4.412c.255 0 .401.037.291.368-.255.92-.036.809-1.021.809h-4.995c-.401 0-.51-.074-.401-.515.547-2.538 1.057-5.076 1.604-7.577.037-.11.219-.294.328-.294h5.47c.036 0 .073.037.182.073a9.4 9.4 0 01-.255.957c-.037.11-.255.147-.401.147-1.167 0-2.297.037-3.464 0-.401 0-.583.073-.656.552-.073.551-.219 1.103-.365 1.691.255 0 .401.037.583.037h3.355c.292 0 .401.037.292.368-.256.883-.037.81-1.021.81-1.021 0-2.006.036-3.027 0-.401 0-.547.146-.62.477 0 .663-.145 1.361-.291 2.097zm65.229-7.136c-.073.294-.109.626-.218.846-.073.11-.292.22-.438.22-1.167.038-2.37.038-3.537 0-.328 0-.51.075-.547.442a15.89 15.89 0 01-.291 1.398c-.037.11-.037.22-.037.405h3.902c.291 0 .401.036.291.367-.255.883-.036.81-1.021.81h-3.063c-.291 0-.474.073-.546.404-.11.625-.256 1.214-.402 1.84-.036.11 0 .183.037.33.182 0 .401.037.583.037h3.719c.329 0 .511.074.329.405-.037.11-.073.257-.11.367-.036.295-.182.405-.474.405h-5.506c-.328 0-.401-.074-.328-.405a2644.27 2644.27 0 001.641-7.65c.037-.147.219-.331.328-.331 1.823-.037 3.646 0 5.47 0 .073.037.109.074.218.11zm-186.322 6.4h-3.318c-.11 0-.255.11-.328.221-.292.478-.51.956-.802 1.398-.073.147-.292.257-.474.294-.365.037-.73 0-1.204 0 .51-.92.948-1.802 1.422-2.648.547-1.03 1.13-2.06 1.714-3.09.438-.81.875-1.618 1.35-2.39a.555.555 0 01.4-.221c.438-.037.839 0 1.276 0 .22 0 .329.036.365.294.365 2.39.766 4.781 1.13 7.172.037.294.073.589.146.92-.4 0-.802.037-1.166-.037-.146-.037-.292-.257-.329-.405-.073-.478-.11-.956-.182-1.508zm-2.735-1.177h1.97c.546 0 .62-.11.546-.662l-.437-2.758c0-.074-.073-.147-.11-.258-.073.074-.182.11-.219.184-.546.993-1.093 1.986-1.604 2.98-.11.147-.11.294-.146.514zm76.28 3.089h-1.313c-.11 0-.219-.147-.255-.257-.255-.846-.474-1.692-.73-2.501-.109-.405-.218-.773-.692-.956-.401-.148-.584-.074-.693.367-.219 1.03-.474 2.023-.656 3.053-.037.294-.183.331-.401.331h-.401c-.803 0-.803 0-.62-.809.51-2.39 1.02-4.818 1.531-7.21.037-.256.146-.404.438-.367H92.4a39.573 39.573 0 00-.364 1.802c-.11.442-.183.883-.292 1.325-.073.404.073.588.474.44.292-.11.584-.293.766-.514.474-.699.911-1.434 1.385-2.133.547-.773 1.313-1.03 2.298-.92-.11.331-.183.625-.292.883-.037.073-.219.184-.328.147-.474-.037-.693.22-.912.588a15.727 15.727 0 01-1.094 1.619c-.182.257-.51.441-.802.588-.219.11-.255.221-.073.331.766.368 1.021 1.067 1.203 1.84.22.772.438 1.544.657 2.353zM55.431 39.43c-.51.036-.948.11-1.422.147-.036-.074-.11-.11-.146-.184-.182-1.14-1.385-1.324-2.26-1.104-.912.221-1.459.846-1.823 1.692-.401.957-.584 1.913-.365 2.943.146.772.583 1.36 1.386 1.508.875.147 1.64-.11 2.187-.883.183-.22.292-.515.474-.809.438.073.912.147 1.386.22-.766 2.244-3.209 3.385-5.25 2.465-.949-.441-1.496-1.25-1.678-2.28-.292-1.582.036-3.053.912-4.377 1.02-1.545 3.245-2.244 4.922-1.508.948.367 1.495 1.103 1.677 2.17zm33.033 0c-.438.037-.875.11-1.313.147-.073 0-.182-.11-.182-.184-.146-.589-.438-.956-1.021-1.103-.656-.148-1.24-.11-1.86.22-1.02.552-1.349 1.545-1.568 2.575a5.421 5.421 0 000 1.876c.11.772.584 1.324 1.35 1.471.838.184 1.604-.11 2.15-.81.183-.22.292-.514.475-.845.437.073.911.147 1.385.22-.729 2.244-3.281 3.421-5.25 2.465-.912-.441-1.459-1.25-1.641-2.244-.292-1.581.036-3.053.911-4.377 1.021-1.544 3.21-2.243 4.923-1.508.875.221 1.568 1.177 1.64 2.097zM1.21 38.84c.402-1.03 1.167-1.544 2.079-1.802.948-.257 1.86-.073 2.698.442 1.276.772 1.313 2.464.073 3.31-.182.11-.328.22-.51.294-.329.147-.292.295-.037.442 1.459.882 1.094 2.648-.11 3.457-1.421.92-2.953.993-4.448.184-.4-.22-.656-.736-.948-1.14-.036-.037.073-.258.146-.294.328-.147.693-.221 1.021-.295.073 0 .255.11.328.221.547.883 2.188 1.104 2.99.405.401-.368.547-.92.401-1.398-.182-.589-.656-.736-1.203-.81-.146-.036-.328 0-.547 0 .073-.404.146-.735.219-1.103.036-.073.219-.147.328-.184.292-.073.656-.036.948-.147.62-.22.875-.735.802-1.397-.036-.405-.401-.773-.911-.81-.693-.073-1.422-.036-1.824.7-.036.073-.182.146-.291.146-.328-.036-.73-.147-1.204-.22zm38.467 6.732c0-.11.036-.22.036-.294.037-.736.037-.772.766-.736.766.037 1.714-.993 1.422-1.876-.51-1.618-.948-3.31-1.422-4.965a4.601 4.601 0 00-.146-.589c.474 0 .875-.036 1.276 0 .11 0 .292.184.292.295.292 1.25.547 2.464.802 3.715.037.184.146.33.255.478.146-.11.328-.184.438-.331a321.622 321.622 0 012.735-3.825c.109-.148.364-.258.547-.295.364-.037.765 0 1.166 0 0 .074 0 .147-.036.184-1.896 2.501-3.756 5.04-5.652 7.54-.583.81-1.458.994-2.48.7zm17.793-.073c.51-2.428 1.02-4.782 1.494-7.21h-2.516c.073-.404.146-.735.219-1.03.036-.073.182-.146.255-.146h6.272c-.073.368-.11.662-.219.956-.037.11-.255.22-.401.22-.693.038-1.386 0-2.115 0-.401 1.913-.802 3.752-1.167 5.628-.11.442-.145.883-.291 1.325-.037.11-.22.257-.329.257-.328.037-.729 0-1.203 0zm62.934-7.209h-2.516c.073-.368.146-.699.219-1.03 0-.074.146-.147.218-.147h6.308c-.072.368-.109.662-.218.956-.037.11-.256.22-.401.22-.693.038-1.386 0-2.115 0-.474 2.318-.985 4.562-1.422 6.842-.073.294-.146.405-.438.405h-1.167c.547-2.428 1.021-4.782 1.532-7.246zm-89.296-1.104c-.073.257-.11.588-.182.883-.036.11-.219.183-.365.183-.547.037-1.094 0-1.677 0-.146 0-.328 0-.474.037-.474 2.28-.985 4.561-1.422 6.805-.073.294-.146.404-.438.404h-1.13c.182-.882.365-1.728.547-2.574.292-1.435.62-2.832.912-4.267.072-.257-.037-.405-.329-.405H24.4c.072-.367.109-.662.218-.993.036-.073.182-.184.292-.184h6.162c-.037.037-.037.074.036.11z" fill="#373334"/></svg>