<svg width="20" height="20" fill="none" xmlns="http://www.w3.org/2000/svg"><path d="M4.251 4.138L2.996 2.883a.586.586 0 11.828-.829L5.08 3.31a.586.586 0 11-.829.828zM1.527 6.904h1.255a.586.586 0 010 1.171H1.527a.586.586 0 010-1.171zm6.904-4.477a.586.586 0 01-.586-.586V.586a.586.586 0 011.172 0V1.84a.586.586 0 01-.586.586zm10.456 12.18c.229.228.229.6 0 .828l-2.51 2.51a.586.586 0 01-.829 0l-.982-.981 3.34-3.34.981.983zm-10.145.473l4.115 1.936-2.813 2.812a.586.586 0 01-.829 0L7.02 17.632a.586.586 0 010-.829l1.723-1.723zm2.413-13.025a.586.586 0 01.944.164l4.978 10.577-3.34 3.34-10.576-4.978a.586.586 0 01-.165-.945l8.159-8.158z" fill="#9F0023"/></svg>