<svg width="312" height="70" fill="none" xmlns="http://www.w3.org/2000/svg"><g opacity=".4" fill="#959595"><path d="M311.894 13.838c-.107.107-.267.268-.267.376-.266 3.379-1.757 6.06-4.152 8.367-.959.912-1.012.912-.373 2.092a12.278 12.278 0 011.437 7.242c-.426 3.593-2.129 6.544-5.057 8.743-1.97 1.448-4.153 2.414-6.549 2.414-22.361 0-44.722-.054-67.083-.108h-25.396c.266-1.072.479-2.091.746-3.057 1.756-7.134 3.567-14.268 5.324-21.456.106-.483.319-.644.745-.59h6.389c.479 0 .639.054.479.644-1.065 4.237-2.13 8.421-3.141 12.659-.32 1.233-.586 2.467-.905 3.7-.107.484 0 .645.479.59h.692c27.046 0 54.092 0 81.192.054 1.171 0 2.183-.16 3.088-.965.852-.75 1.437-1.663 1.65-2.843.533-3.111-1.224-5.793-4.419-6.276-2.076-.322-4.099-.214-6.122-.214-19.859-.054-39.718 0-59.577 0h-.958c.266-.966.479-1.824.692-2.682.373-1.395.692-2.79 1.065-4.184.106-.483.319-.644.799-.644.958.107 1.97.107 2.928.161l23.426.161c5.058.054 10.062.107 15.12.107 4.366.054 8.731.108 13.097.108 4.046.053 8.093.107 12.139.107 1.331 0 2.556-.43 3.567-1.395 1.225-1.18 1.651-2.628 1.544-4.345-.106-1.93-1.65-3.969-3.567-4.398-.532-.107-1.118-.215-1.704-.215h-24.863c-16.025-.053-32.051-.107-48.076-.107-15.653-.054-31.306-.107-46.905-.107-.958 0-.958 0-1.171.912-1.598 6.49-3.195 12.927-4.792 19.417l-3.514 14.161c-.053.215-.319.483-.532.483-2.29.053-4.579 0-6.922 0-.053 0-.159-.054-.319-.054.426-1.663.799-3.272 1.224-4.881 2.29-9.172 4.526-18.291 6.815-27.463A638.725 638.725 0 00172.51.696c.106-.536.373-.643.905-.643h127.617c1.491 0 2.822.59 4.047 1.233 2.183 1.18 3.78 2.897 4.951 5.043.958 1.823 1.757 3.647 1.81 5.739 0 .107.107.215.16.322-.106.536-.106.965-.106 1.448zM240.341 70c.319-1.61.692-3.218 1.011-4.881.054-.376.267-.537.639-.483.533.107.799-.16 1.012-.644 1.544-2.95 2.342-6.06 2.981-9.28.054-.375.16-.59.586-.59h7.72c.106 0 .16.054.319.054-.266 1.234-.532 2.521-.798 3.755-.426 2.092-.905 4.13-1.331 6.222-.054.376 0 .537.426.537s.479.16.372.536c-.319 1.341-.585 2.682-.852 4.023-.053.268 0 .483 0 .751h-1.81c.213-1.18.479-2.36.692-3.594h-8.571c-.213 1.234-.373 2.414-.586 3.594h-1.81zm11.713-14.16c-1.225 0-2.396.053-3.514 0-.533 0-.692.214-.852.696-.692 2.307-1.491 4.56-2.236 6.813-.16.429-.32.858-.479 1.34h5.217c.639-2.95 1.225-5.846 1.864-8.85zM142.695 42.858c2.875-11.64 5.75-23.28 8.625-34.973h-1.118c-47.491 0-95.035 0-142.525.054-2.822 0-4.153-1.985-4.153-4.184C3.577 2.038 4.589.483 6.186.107 6.506.054 6.825 0 7.091 0h154.131c-.372 1.61-.798 3.218-1.171 4.774-.213.965-.373 1.985-.639 2.95-.479 1.985-1.065 3.97-1.597 5.954a1417.967 1417.967 0 00-3.62 14.483c-1.172 4.72-2.29 9.494-3.461 14.214-.053.161-.266.43-.426.43-2.502.053-5.058.053-7.613.053z"/><path d="M52.72 43.126H7.625c-1.81 0-3.248-1.019-3.78-2.735-.48-1.449.16-3.058 1.597-4.077.745-.536 1.597-.644 2.45-.644h89.603c2.13 0 4.153-1.93 4.472-4.023.266-1.93-.16-3.54-1.597-4.88-.852-.752-1.81-1.235-2.982-1.235H49.152c-1.597 0-2.768-.643-3.46-2.145-.745-1.556-.426-3.004.692-4.184.692-.751 1.544-1.18 2.662-1.18h47.703a12.6 12.6 0 0112.406 10.299c.745 3.915-.32 7.402-2.875 10.406-2.077 2.467-4.739 3.808-7.88 4.344-.266.054-.532 0-.745 0-15.014.054-29.975.054-44.935.054zm168.027 23.226h-2.928c-.426 0-.586-.107-.479-.59l2.395-11.264c.054-.161.373-.43.533-.43 1.863 0 3.78 0 5.643.108 1.331.053 2.236.912 2.556 2.199.266 1.073-.266 2.36-1.278 2.897-.16.107-.373.16-.586.321-.319.215-.372.376 0 .644.48.375.959.751 1.225 1.234.639 1.073.16 2.092-.426 3.057-.639 1.073-1.757 1.502-2.928 1.663-1.278.16-2.556.161-3.78.215.053 0 .053 0 .053-.054zm1.331-1.717h1.597c.959-.053 1.704-.375 2.13-1.287.426-1.019 0-2.092-1.118-2.253-1.278-.16-2.609-.107-3.94-.107-.107 0-.266.215-.266.322-.213.912-.426 1.877-.639 2.79-.053.32.053.535.426.535h1.81zm-1.118-5.31c1.491-.053 2.768-.107 4.046-.214.905-.108 1.438-1.02 1.331-2.039-.106-.804-.639-1.233-1.65-1.233h-2.023c-.959 0-1.012 0-1.172.965-.213.751-.319 1.556-.532 2.521zm-112.126 7.028h-2.981c-.426 0-.533-.161-.426-.537l2.395-11.264c.054-.215.373-.43.533-.43 1.863 0 3.78 0 5.643.108 1.438.107 2.396 1.073 2.609 2.414.16.858-.426 2.36-1.65 2.843-.213.053-.32.268-.48.429.16.16.267.322.426.429 1.331.858 1.598 2.038 1.012 3.486-.639 1.502-1.863 2.2-3.354 2.36-1.225.162-2.502.162-3.727.215v-.053zm-.905-1.717c1.491 0 2.822.054 4.099 0 .852 0 1.544-.483 1.864-1.287.426-1.02 0-2.092-1.065-2.253-.958-.161-1.917-.107-2.928-.107-1.225 0-1.278 0-1.544 1.233-.107.751-.266 1.556-.426 2.414zm3.727-8.797c-.479 0-.959-.053-1.385 0-.212.054-.479.268-.532.43-.213.75-.373 1.555-.532 2.36-.107.375 0 .59.479.59.852 0 1.757.053 2.609 0 .479-.054.958-.162 1.384-.376.639-.322.958-1.234.798-1.985-.159-.643-.692-1.019-1.49-1.019h-1.331zm172.553-1.716c-.533 2.574-1.065 5.095-1.597 7.617.053.053.106.107.213.107.319-.268.638-.483.905-.805 1.384-1.663 2.768-3.325 4.206-4.935.319-.375.585-.697.905-1.072.426-.59.905-1.02 1.703-.859.32.054.693 0 1.119 0-.213 1.02-.426 1.931-.586 2.897-.639 3.004-1.278 5.954-1.917 8.958-.053.16-.319.429-.479.429-2.023 0-1.757.322-1.331-1.556.373-1.877.799-3.754 1.225-5.632.053-.16-.054-.375-.107-.536-.16.107-.319.107-.426.268-1.863 2.2-3.727 4.452-5.59 6.651-.639.751-1.651 1.127-2.502.858-.107-.053-.267-.321-.213-.482.372-1.824.798-3.648 1.171-5.472.426-1.93.799-3.808 1.224-5.739.107-.43.267-.59.693-.536.319-.161.798-.161 1.384-.161zm-49.675-.001a898.388 898.388 0 01-1.597 7.563c.053.054.106.108.213.108.319-.268.639-.483.905-.805 1.384-1.663 2.768-3.325 4.206-4.935.319-.375.639-.75.905-1.126.426-.536.905-.966 1.65-.858.373.053.693 0 1.172 0-.267 1.233-.479 2.413-.746 3.54-.585 2.735-1.171 5.525-1.757 8.26-.053.376-.213.43-.532.43-1.917-.054-1.704.268-1.278-1.61.373-1.877.799-3.754 1.225-5.632.053-.16-.053-.375-.053-.536-.16.053-.32.107-.426.268-1.864 2.2-3.781 4.452-5.591 6.651-.639.751-1.597 1.127-2.502.859-.106-.054-.266-.322-.213-.483.586-2.79 1.171-5.579 1.81-8.368.213-.912.426-1.877.586-2.79.053-.428.266-.59.692-.59.266.054.745.054 1.331.054zm-81.353 4.99c-.106 2.896-1.757 6.061-4.685 7.134-2.396.858-4.951.322-6.335-1.878-.746-1.233-.959-2.628-.639-4.076.319-1.449.745-2.79 1.65-3.97.905-1.18 2.077-1.93 3.514-2.306 1.384-.376 2.769-.268 4.1.483 1.544.912 2.449 2.789 2.395 4.613zm-9.583 2.36c0 1.287.373 2.414 1.597 3.004 1.278.59 2.503.429 3.567-.43 1.172-.858 1.704-2.145 2.024-3.54.266-1.072.266-2.199-.213-3.272-.852-1.93-3.781-2.092-5.271-.483-1.172 1.342-1.704 2.95-1.704 4.72zm-86.301-2.254c-.266 2.682-1.225 5.096-3.727 6.597-2.502 1.449-5.697 1.18-7.294-1.394-.799-1.288-.958-2.736-.639-4.184.32-1.395.745-2.736 1.65-3.916a6.103 6.103 0 013.514-2.253c1.385-.375 2.769-.268 4.047.483 1.757.966 2.342 2.628 2.449 4.667zm-2.236-.054v-.268c0-1.448-.64-2.521-1.704-2.95-1.544-.59-3.088-.054-3.94.858-1.224 1.341-1.757 3.004-1.757 4.881.054 1.18.373 2.2 1.491 2.736 1.171.59 2.29.536 3.354-.161 1.864-1.234 2.396-3.058 2.556-5.096zm-44.453 5.633c1.544-.107 1.81-.322 2.13-1.824.585-2.736 1.17-5.525 1.81-8.26.053-.215.32-.59.479-.59 2.556-.054 5.164 0 7.826 0-.266 1.233-.479 2.36-.745 3.54-.586 2.735-1.171 5.525-1.757 8.26-.106.376-.213.483-.586.483h-1.224c-.426 0-.48-.16-.426-.536l1.917-9.012c.212-.858.106-.965-.746-.965h-2.183c-.479 0-.692.107-.798.643a180.897 180.897 0 01-1.757 7.724c-.48 1.717-1.544 2.468-3.088 2.414-.32 0-.639-.053-.905-.16-.107-.054-.266-.322-.266-.43.106-.483.266-.858.319-1.287zm194.433-10.674a150.436 150.436 0 00-.851 4.237c-.533 2.521-1.119 5.042-1.651 7.563-.053.376-.213.43-.532.43h-1.225c-.426 0-.532-.161-.426-.537l1.917-9.011c.213-.912.16-.966-.799-.966h-2.183c-.479 0-.638.161-.745.644-.586 2.628-1.065 5.257-1.81 7.778-.533 2.038-1.917 2.682-3.993 2.252-.107-.053-.213-.107-.373-.16.107-.483.266-1.02.373-1.502 1.597-.161 1.916-.43 2.236-2.146.586-2.682 1.118-5.418 1.704-8.1.053-.214.319-.482.532-.482h7.826zm66.656-.001a153.399 153.399 0 01-1.012 4.828c.213.053.426.053.586.053h4.046c.426 0 .639-.16.693-.536.266-1.288.532-2.521.798-3.809.053-.375.213-.59.639-.536h1.704c-.266 1.234-.479 2.36-.746 3.54-.585 2.736-1.171 5.525-1.757 8.26-.053.376-.213.483-.585.483h-1.225c-.426 0-.532-.16-.426-.536.32-1.448.639-2.843.905-4.291.16-.698.054-.805-.585-.805h-3.78c-.479 0-.692.107-.799.59-.319 1.556-.692 3.058-.958 4.613-.054.376-.213.483-.533.43h-.585c-1.491 0-1.225 0-.959-1.18.693-3.487 1.491-6.974 2.236-10.46.107-.483.267-.644.746-.644h1.597zM257.745 64.69h7.028c-.106.536-.213 1.019-.373 1.448-.053.16-.319.268-.479.268h-8.146c-.426 0-.532-.16-.426-.59.799-3.755 1.598-7.456 2.396-11.21.054-.215.373-.483.533-.483 2.555-.054 5.164 0 7.72 0 .372 0 .479.053.372.482-.372 1.502-.159 1.234-1.491 1.234h-4.578c-.479 0-.692.161-.746.644-.106.858-.319 1.716-.532 2.628.319 0 .586.054.852.054h4.738c.799 0 .799 0 .586.804v.054c-.053.697-.426.912-1.171.912-1.598-.054-3.195 0-4.792 0-.426 0-.639.107-.745.59a34.566 34.566 0 00-.746 3.165zm-72.401-5.579c.372 0 .585.054.852.054h4.898c.426 0 .585.053.426.536-.373 1.288-.054 1.18-1.491 1.18-1.491 0-2.928.054-4.419 0-.586 0-.799.215-.905.697-.16 1.02-.373 1.985-.586 3.058.373 0 .586.054.852.054h5.431c.532 0 .745.053.532.697-.373 1.126-.053 1.073-1.331 1.073h-7.454c-.479 0-.639-.108-.532-.644a3856.88 3856.88 0 002.396-11.157c.053-.16.319-.43.479-.43h7.986c.053 0 .107.054.266.108-.106.43-.159.912-.319 1.341-.053.161-.426.268-.639.268-1.704 0-3.354.054-5.058 0-.586 0-.852.108-.958.805 0 .644-.213 1.448-.426 2.36zm-19.755-4.881c-.106.482-.16.965-.373 1.34-.053.162-.426.269-.639.269-1.703 0-3.354.053-5.057 0-.586 0-.852.107-.905.75-.054.645-.213 1.288-.426 1.932-.16.536.053.643.532.643h5.697c-.107.537-.213 1.02-.373 1.449-.053.16-.426.268-.639.268h-5.058c-.479 0-.745.107-.852.644-.159.858-.372 1.716-.532 2.628-.106.483.16.59.586.59h6.335c-.106.536-.213 1.02-.372 1.448-.054.161-.32.269-.48.269h-8.252c-.426 0-.479-.215-.372-.59.638-3.004 1.331-6.062 1.969-9.066.16-.697.267-1.448.426-2.092.054-.214.32-.482.533-.482 2.609-.054 5.217 0 7.826 0 .16-.108.266-.054.426 0zm42.592 10.406h6.442c.373 0 .586.054.426.536-.373 1.341-.053 1.18-1.491 1.18h-7.294c-.586 0-.745-.107-.586-.75.799-3.702 1.544-7.403 2.343-11.05.053-.161.319-.43.479-.43h7.986c.054 0 .107.054.266.108-.106.483-.212.912-.372 1.395-.053.16-.373.214-.586.214-1.704 0-3.354.054-5.058 0-.585 0-.852.107-.958.805-.107.804-.319 1.609-.532 2.467.372 0 .585.054.851.054h4.899c.425 0 .585.053.425.536-.372 1.288-.053 1.18-1.49 1.18-1.491 0-2.928.054-4.419 0-.586 0-.799.215-.905.698 0 .965-.213 1.984-.426 3.057zm95.245-10.406c-.106.43-.159.912-.319 1.234-.107.16-.426.322-.639.322a82.94 82.94 0 01-5.164 0c-.48 0-.746.107-.799.643a22.654 22.654 0 01-.426 2.039c-.053.16-.053.321-.053.59h5.697c.425 0 .585.053.425.536-.372 1.287-.053 1.18-1.49 1.18h-4.472c-.426 0-.693.107-.799.59-.16.912-.373 1.77-.586 2.682-.053.161 0 .268.054.483.266 0 .585.053.851.053h5.431c.479 0 .745.108.479.59-.053.161-.106.376-.16.537-.053.429-.266.59-.692.59h-8.039c-.479 0-.586-.107-.479-.59.798-3.701 1.597-7.402 2.396-11.157.053-.215.319-.483.479-.483 2.662-.053 5.324 0 7.986 0 .106.054.16.107.319.161zM31.367 63.563h-4.845c-.16 0-.373.161-.48.322-.425.698-.745 1.395-1.17 2.039-.107.214-.427.375-.693.429-.532.053-1.064 0-1.757 0 .746-1.341 1.385-2.629 2.077-3.862.798-1.502 1.65-3.004 2.502-4.506.639-1.18 1.278-2.36 1.97-3.487.106-.16.373-.322.586-.322.639-.053 1.224 0 1.863 0 .32 0 .48.054.532.43.533 3.486 1.119 6.973 1.65 10.46.054.428.107.858.214 1.34-.586 0-1.172.054-1.704-.053-.213-.054-.426-.376-.479-.59-.107-.698-.16-1.395-.266-2.2zm-3.993-1.716h2.875c.798 0 .905-.16.798-.965l-.639-4.023c0-.108-.106-.215-.16-.376-.106.107-.265.161-.319.268a173.27 173.27 0 00-2.342 4.345c-.16.215-.16.43-.213.751zm111.38 4.505h-1.917c-.159 0-.319-.214-.372-.375-.373-1.234-.693-2.468-1.065-3.648-.16-.59-.32-1.126-1.012-1.394-.585-.215-.852-.108-1.011.536-.32 1.502-.693 2.95-.959 4.452-.053.43-.266.483-.585.483h-.586c-1.171 0-1.171 0-.905-1.18.745-3.487 1.491-7.027 2.236-10.514.053-.375.213-.59.639-.536h1.704c-.213.912-.373 1.77-.533 2.628-.16.644-.266 1.288-.426 1.931-.106.59.107.859.692.644.426-.16.852-.43 1.118-.75.693-1.02 1.331-2.093 2.024-3.112.798-1.126 1.916-1.502 3.354-1.341-.16.483-.266.912-.426 1.287-.053.108-.32.269-.479.215-.693-.054-1.012.322-1.331.858-.48.805-1.012 1.61-1.598 2.36-.266.376-.745.644-1.171.858-.319.162-.373.322-.106.483 1.118.537 1.49 1.556 1.757 2.682.319 1.127.638 2.253.958 3.433zm-57.816-8.85c-.746.053-1.385.16-2.077.214-.053-.107-.16-.16-.213-.268-.266-1.663-2.023-1.931-3.3-1.61-1.332.323-2.13 1.234-2.663 2.468-.585 1.395-.852 2.79-.532 4.291.213 1.127.852 1.985 2.023 2.2 1.278.214 2.396-.161 3.195-1.288.266-.322.425-.75.692-1.18.639.108 1.33.215 2.023.322-1.118 3.272-4.685 4.935-7.667 3.594-1.384-.644-2.183-1.824-2.449-3.326-.426-2.306.053-4.452 1.331-6.383 1.49-2.253 4.739-3.272 7.188-2.2 1.384.537 2.182 1.61 2.449 3.166zm48.233 0c-.639.054-1.278.16-1.917.215-.107 0-.266-.161-.266-.269-.213-.858-.639-1.394-1.491-1.609-.958-.215-1.81-.16-2.715.322-1.491.804-1.97 2.253-2.29 3.755a7.902 7.902 0 000 2.735c.16 1.127.852 1.931 1.97 2.146 1.225.268 2.343-.161 3.141-1.18.267-.322.426-.751.693-1.234.638.107 1.331.215 2.023.322-1.065 3.272-4.792 4.989-7.667 3.594-1.331-.644-2.13-1.824-2.396-3.272-.426-2.307.053-4.452 1.331-6.383 1.491-2.253 4.685-3.272 7.188-2.2 1.277.322 2.289 1.717 2.396 3.058zm-127.403-.86c.585-1.501 1.703-2.252 3.034-2.628 1.384-.375 2.715-.107 3.94.644 1.863 1.126 1.917 3.594.106 4.827-.266.161-.479.322-.745.43-.479.214-.426.429-.053.643 2.13 1.288 1.597 3.862-.16 5.042-2.076 1.341-4.312 1.449-6.495.269-.586-.322-.959-1.073-1.384-1.663-.054-.054.106-.376.213-.43.479-.214 1.011-.321 1.49-.429.107 0 .373.161.48.322.798 1.288 3.194 1.61 4.365.59.586-.536.799-1.34.586-2.038-.266-.858-.959-1.073-1.757-1.18-.213-.054-.48 0-.799 0 .107-.59.213-1.073.32-1.61.053-.106.32-.214.479-.267.426-.108.958-.054 1.384-.215.905-.322 1.278-1.073 1.171-2.038-.053-.59-.585-1.127-1.33-1.18-1.012-.108-2.077-.054-2.663 1.019-.053.107-.266.214-.426.214-.479-.053-1.064-.214-1.756-.322zm56.166 9.818c0-.161.053-.322.053-.43.053-1.072.053-1.126 1.118-1.072 1.118.053 2.502-1.448 2.076-2.736-.745-2.36-1.384-4.827-2.076-7.241a6.724 6.724 0 00-.213-.858c.692 0 1.278-.054 1.863 0 .16 0 .426.268.426.429a198.48 198.48 0 011.172 5.417c.053.268.212.483.372.698.213-.161.48-.269.64-.483a500.612 500.612 0 013.992-5.579c.16-.214.533-.375.799-.429.532-.053 1.118 0 1.703 0 0 .107 0 .215-.053.268-2.768 3.648-5.483 7.35-8.252 10.997-.852 1.18-2.13 1.448-3.62 1.019zm25.98-.107c.745-3.54 1.49-6.974 2.182-10.514h-3.673c.106-.59.213-1.073.32-1.502.053-.107.266-.214.372-.214h9.157c-.106.536-.16.965-.32 1.394-.052.161-.372.322-.585.322-1.011.054-2.023 0-3.088 0-.585 2.79-1.171 5.471-1.703 8.207-.16.644-.213 1.287-.426 1.931-.054.161-.32.376-.48.376-.479.053-1.064 0-1.756 0zm91.894-10.513h-3.673c.106-.537.213-1.02.319-1.503 0-.107.213-.214.32-.214h9.21c-.106.536-.159.965-.319 1.394-.053.161-.373.322-.586.322-1.011.054-2.023 0-3.088 0-.692 3.38-1.437 6.651-2.076 9.977-.107.43-.213.59-.639.59h-1.704c.799-3.54 1.491-6.973 2.236-10.567zM45.423 54.23c-.107.375-.16.858-.267 1.287-.053.16-.319.268-.532.268-.799.054-1.597 0-2.449 0-.213 0-.48 0-.692.054-.692 3.325-1.438 6.65-2.076 9.923-.107.429-.213.59-.64.59h-1.65c.266-1.287.533-2.521.799-3.755.426-2.092.905-4.13 1.33-6.222.107-.376-.052-.59-.478-.59h-3.142c.107-.536.16-.966.32-1.448.053-.108.266-.269.426-.269h8.998c-.054.054-.054.108.053.161z"/><path fill-rule="evenodd" clip-rule="evenodd" d="M100.421 65.816c2.502-1.502 3.461-3.916 3.727-6.598-.053-2.039-.692-3.701-2.449-4.667-1.278-.75-2.662-.858-4.046-.483a6.103 6.103 0 00-3.514 2.253c-.905 1.18-1.331 2.521-1.65 3.916-.32 1.448-.16 2.896.638 4.184 1.597 2.575 4.792 2.843 7.294 1.394zm-4.738-1.61c-.746-.536-1.118-1.448-1.118-2.789 0-.429.033-.851.101-1.262a6.38 6.38 0 011.606-3.35 3.445 3.445 0 013.887-.86c.616.25 1.09.696 1.39 1.298.202.392.326.852.356 1.36.005.061.008.123.011.186a7.989 7.989 0 01-.127 1.692c-.24 1.27-.831 2.417-1.847 3.404-1.171 1.126-2.928 1.233-4.26.321z"/></g></svg>