<svg width="15" height="12" fill="none" xmlns="http://www.w3.org/2000/svg"><path d="M14.85 2.8s-.146-1.103-.597-1.588c-.571-.637-1.21-.64-1.503-.678C10.652.372 7.503.372 7.503.372h-.006s-3.15 0-5.247.162c-.293.038-.932.041-1.503.678C.296 1.697.152 2.8.152 2.8S0 4.097 0 5.39v1.213c0 1.294.15 2.59.15 2.59s.146 1.104.594 1.588c.571.638 1.321.616 1.655.685 1.202.122 5.101.159 5.101.159s3.152-.006 5.25-.166c.293-.037.932-.04 1.503-.678.451-.484.598-1.587.598-1.587S15 7.9 15 6.604V5.39c0-1.294-.15-2.591-.15-2.591zm-8.9 5.275V3.578l4.052 2.256-4.052 2.24z" fill="#373334"/></svg>