<svg width="522" height="247" fill="none" xmlns="http://www.w3.org/2000/svg"><path d="M499.09 54l.001-.006a43085.17 43085.17 0 0010.664-44.06h-1.385c-58.723 0-117.512 0-176.235.069-3.489 0-5.135-2.501-5.135-5.272.066-2.163 1.317-4.123 3.292-4.596.395-.067.79-.135 1.119-.135H522c-.264 1.16-.549 2.32-.831 3.468-.211.858-.42 1.709-.617 2.547a59.3 59.3 0 00-.263 1.307c-.156.807-.314 1.623-.527 2.41-.395 1.667-.849 3.334-1.302 5.001-.227.834-.454 1.668-.673 2.501-1.515 6.083-3.029 12.165-4.477 18.248-.724 2.974-1.432 5.964-2.14 8.955a1380.92 1380.92 0 01-2.139 8.955c-.066.202-.329.54-.527.54-3.094.068-6.254.068-9.414.068z" fill="#9F0023"/><path d="M499.09 54l.001-.006a43085.17 43085.17 0 0010.664-44.06h-1.385c-58.723 0-117.512 0-176.235.069-3.489 0-5.135-2.501-5.135-5.272.066-2.163 1.317-4.123 3.292-4.596h0c.395-.067.79-.135 1.119-.135H522c-.264 1.16-.549 2.32-.831 3.468-.211.858-.42 1.709-.617 2.547a59.3 59.3 0 00-.263 1.307c-.156.807-.314 1.623-.527 2.41-.395 1.667-.849 3.334-1.302 5.001-.227.834-.454 1.668-.673 2.501-1.515 6.083-3.029 12.165-4.477 18.248-.724 2.974-1.432 5.964-2.14 8.955a1380.92 1380.92 0 01-2.139 8.955c-.066.202-.329.54-.527.54-3.094.068-6.254.068-9.414.068h0z" stroke="#F2F2F2"/><path d="M111.133 245.602c1.954 0 3.351-1.118 3.351-3.354V192.49h23.736c2.234 0 3.351-1.397 3.351-3.354v-15.654c0-1.957-.838-3.634-3.351-3.634h-23.736v-38.017c0-2.236-1.676-3.075-3.351-3.075h-18.99c-1.675 0-3.63.559-3.63 3.075v38.017h-55.57l83.775-116.846c.837-1.398 1.396-4.193-1.117-5.59l-12.846-10.903c-1.955-1.118-3.91-.28-5.026 1.398L1.387 172.084C-.01 174.041-.29 174.6.27 176.836l2.792 13.139c.559 1.956 1.396 2.515 3.072 2.515h82.38v49.758c0 2.516 1.675 3.354 3.63 3.354h18.989zm198.977-144.52c0-40.812-20.943-64.293-67.299-64.293-46.356 0-67.3 23.76-67.3 64.852v80.786c0 41.092 20.944 64.573 67.3 64.573 46.356 0 67.299-24.04 67.299-64.573v-81.345zm-25.691 79.388c0 28.793-10.891 43.608-41.608 43.608-29.601 0-41.609-15.654-41.609-43.608v-76.872c0-27.954 12.008-43.887 41.609-43.887 30.717 0 41.608 15.933 41.608 43.887v76.872zm168.143 65.132c1.954 0 3.351-1.118 3.351-3.354V192.49h23.736c2.234 0 3.351-1.397 3.351-3.354v-15.654c0-1.957-.838-3.634-3.351-3.634h-23.736v-38.017c0-2.236-1.676-3.075-3.351-3.075h-18.99c-1.675 0-3.63.559-3.63 3.075v38.017h-55.571l83.776-116.846c.837-1.398 1.396-4.193-1.117-5.59l-12.846-10.903c-1.955-1.118-3.91-.28-5.027 1.398l-96.341 134.177c-1.397 1.957-1.676 2.516-1.117 4.752l2.792 13.139c.559 1.956 1.396 2.515 3.072 2.515h82.379v49.758c0 2.516 1.676 3.354 3.63 3.354h18.99z" fill="#373334"/></svg>